<svg xmlns="http://www.w3.org/2000/svg" version="1.0" width="176.000000" height="177.000000" preserveAspectRatio="xMidYMid meet"><rect id="backgroundrect" width="100%" height="100%" x="0" y="0" fill="none" stroke="none"/>
<metadata>
Created by potrace 1.16, written by Peter Selinger 2001-2019
</metadata>

<g class="currentLayer" style=""><title>Layer 1</title><g transform="translate(0,177) scale(0.10000000149011612,-0.10000000149011612) " fill="#ffffff" stroke="none" id="svg_1" class="selected" fill-opacity="1">
<path d="M810 1749 c-213 -16 -396 -104 -551 -265 -147 -154 -224 -330 -236 -546 -9 -165 21 -308 95 -453 33 -65 32 -66 57 33 15 62 15 64 -11 145 -24 72 -28 98 -28 217 -1 112 3 148 22 215 75 260 297 470 559 529 93 21 257 21 342 0 92 -22 235 -94 308 -154 114 -95 211 -246 250 -390 28 -102 25 -303 -5 -400 -59 -187 -172 -333 -297 -386 -139 -58 -241 55 -296 325 -24 118 -46 168 -92 208 -51 45 -95 51 -154 22 -59 -29 -93 -78 -93 -131 0 -78 47 -114 138 -105 30 3 57 8 60 12 3 3 -3 27 -14 53 -18 42 -23 47 -50 44 l-29 -2 23 20 c45 38 79 -11 102 -147 13 -77 44 -172 77 -238 107 -212 295 -244 497 -84 98 78 190 227 237 384 29 97 36 283 16 390 -67 352 -347 633 -692 694 -87 15 -140 17 -235 10z" id="svg_2" fill="#ffffff" fill-opacity="1"/>
<path d="M575 1478 c-79 -27 -121 -109 -73 -142 31 -22 51 -20 78 9 63 67 65 0 10 -273 -43 -214 -95 -398 -165 -582 -25 -64 -45 -122 -45 -128 0 -11 69 -72 81 -72 8 0 96 231 142 375 81 251 141 558 135 688 -3 74 -5 80 -36 108 -35 31 -72 36 -127 17z" id="svg_3" fill="#ffffff" fill-opacity="1"/>
<path d="M950 1441 c-35 -11 -90 -32 -121 -47 l-57 -27 -9 -71 c-5 -39 -8 -72 -7 -74 0 -1 28 15 60 37 96 63 172 86 289 86 78 0 108 -4 138 -19 53 -26 87 -81 94 -150 8 -80 -33 -161 -125 -247 -55 -52 -165 -128 -204 -141 -13 -5 26 -98 41 -98 32 0 181 100 253 171 108 105 143 180 142 299 0 99 -21 154 -82 215 -61 62 -110 79 -237 82 -85 2 -125 -2 -175 -16z" id="svg_4" fill="#ffffff" fill-opacity="1"/>
<path d="M533 1163 c-178 -205 -303 -469 -363 -762 -11 -54 -20 -119 -20 -143 0 -72 26 -142 65 -177 51 -44 79 -41 133 15 l44 47 -38 33 c-42 36 -60 41 -67 22 -11 -31 -22 10 -21 75 3 172 117 490 244 681 47 70 55 89 70 172 9 52 13 94 10 94 -4 0 -29 -26 -57 -57z" id="svg_5" fill="#ffffff" fill-opacity="1"/>
<path d="M293 339 c-5 -35 -7 -70 -5 -77 7 -22 135 -112 218 -152 131 -65 303 -100 339 -70 19 16 20 64 0 80 -8 7 -51 19 -96 26 -147 26 -283 97 -395 206 l-52 50 -9 -63z" id="svg_6" fill="#ffffff" fill-opacity="1"/>
</g></g></svg>